<svg width="41" height="27" viewBox="0 0 41 27" fill="none" xmlns="http://www.w3.org/2000/svg">
<path d="M16.4192 0.872V18.512C16.4192 20.96 15.7112 22.868 14.2952 24.236C12.8792 25.58 10.9832 26.252 8.6072 26.252C6.2072 26.252 4.2632 25.556 2.7752 24.164C1.3112 22.772 0.579203 20.828 0.579203 18.332H5.6192C5.6432 19.412 5.8952 20.252 6.3752 20.852C6.8792 21.452 7.5992 21.752 8.5352 21.752C9.4472 21.752 10.1432 21.464 10.6232 20.888C11.1032 20.312 11.3432 19.52 11.3432 18.512V0.872H16.4192ZM40.6225 8.648C40.6225 9.992 40.2985 11.252 39.6505 12.428C39.0265 13.604 38.0305 14.552 36.6625 15.272C35.3185 15.992 33.6145 16.352 31.5505 16.352H27.3385V26H22.2985V0.872H31.5505C33.4945 0.872 35.1505 1.208 36.5185 1.88C37.8865 2.552 38.9065 3.476 39.5785 4.652C40.2745 5.828 40.6225 7.16 40.6225 8.648ZM31.3345 12.284C32.7265 12.284 33.7585 11.972 34.4305 11.348C35.1025 10.7 35.4385 9.8 35.4385 8.648C35.4385 6.2 34.0705 4.976 31.3345 4.976H27.3385V12.284H31.3345Z" fill="#AE0000"/>
</svg>
