<svg width="77" height="69" viewBox="0 0 77 69" fill="none" xmlns="http://www.w3.org/2000/svg">
<path d="M17.8214 44.72C16.1148 45.3067 14.8481 44.9467 14.0214 43.64C12.9014 41.88 13.5281 40.6267 15.9014 39.88C20.2481 38.3867 23.9814 36.44 27.1014 34.04C23.7148 30.12 20.9014 25.1333 18.6614 19.08H15.3414C13.7948 19.08 13.0214 18.3067 13.0214 16.76C13.0214 15.2133 13.7948 14.44 15.3414 14.44H28.5414V10.48C28.5414 8.90666 29.3414 8.12 30.9414 8.12C32.5148 8.12 33.3014 8.90666 33.3014 10.48V14.44H41.1414H46.7014C48.2481 14.44 49.0214 15.2133 49.0214 16.76C49.0214 18.3067 48.2481 19.08 46.7014 19.08H43.3414C41.2081 24.92 38.3148 29.84 34.6614 33.84C37.8881 36.32 41.5548 38.24 45.6614 39.6C48.4081 40.3467 49.0881 41.6933 47.7014 43.64C46.8214 44.8933 45.5014 45.2533 43.7414 44.72C38.6748 43.0667 34.3281 40.6933 30.7014 37.6C27.0481 40.5333 22.7548 42.9067 17.8214 44.72ZM30.9814 30.48C33.8348 27.3333 36.1014 23.5333 37.7814 19.08H30.8614H23.9414C25.5948 23.4533 27.9414 27.2533 30.9814 30.48Z" fill="#FFE500"/>
<path d="M65.7611 51.648H52.8491C52.4331 53.088 51.9851 54.576 51.5051 56.112C51.0251 57.648 50.6251 58.912 50.3051 59.904C49.9211 60.064 49.5051 60.192 49.0571 60.288C48.6411 60.416 48.0971 60.48 47.4251 60.48C46.1451 60.48 45.1371 60.224 44.4011 59.712C43.6651 59.2 43.2971 58.464 43.2971 57.504C43.2971 57.024 43.3611 56.576 43.4891 56.16C43.6171 55.712 43.7771 55.2 43.9691 54.624C44.2891 53.536 44.7051 52.24 45.2171 50.736C45.7291 49.2 46.2891 47.552 46.8971 45.792C47.5051 44 48.1451 42.16 48.8171 40.272C49.5211 38.352 50.1771 36.496 50.7851 34.704C51.4251 32.912 52.0491 31.248 52.6571 29.712C53.2651 28.144 53.7771 26.8 54.1931 25.68C54.6731 25.424 55.4091 25.168 56.4011 24.912C57.3931 24.624 58.3851 24.48 59.3771 24.48C60.7211 24.48 61.9371 24.688 63.0251 25.104C64.1451 25.488 64.8651 26.128 65.1851 27.024C65.9531 29.136 66.8011 31.568 67.7291 34.32C68.6571 37.04 69.5851 39.872 70.5131 42.816C71.4411 45.728 72.3531 48.592 73.2491 51.408C74.1451 54.192 74.9291 56.704 75.6011 58.944C75.2171 59.36 74.6891 59.712 74.0171 60C73.3451 60.288 72.5451 60.432 71.6171 60.432C70.2731 60.432 69.3291 60.192 68.7851 59.712C68.2411 59.232 67.8091 58.464 67.4891 57.408L65.7611 51.648ZM59.3291 31.056C58.9771 32.016 58.5931 33.088 58.1771 34.272C57.7931 35.456 57.3771 36.704 56.9291 38.016C56.4811 39.296 56.0171 40.592 55.5371 41.904C55.0891 43.216 54.6571 44.512 54.2411 45.792H64.2731L59.6171 31.056H59.3291Z" fill="#FFE500"/>
</svg>
