<svg width="41" height="27" viewBox="0 0 41 27" fill="none" xmlns="http://www.w3.org/2000/svg">
<path d="M15.9192 0.872V18.512C15.9192 20.96 15.2112 22.868 13.7952 24.236C12.3792 25.58 10.4832 26.252 8.1072 26.252C5.7072 26.252 3.7632 25.556 2.2752 24.164C0.811203 22.772 0.0792032 20.828 0.0792032 18.332H5.1192C5.1432 19.412 5.3952 20.252 5.8752 20.852C6.3792 21.452 7.0992 21.752 8.0352 21.752C8.9472 21.752 9.6432 21.464 10.1232 20.888C10.6032 20.312 10.8432 19.52 10.8432 18.512V0.872H15.9192ZM40.1225 8.648C40.1225 9.992 39.7985 11.252 39.1505 12.428C38.5265 13.604 37.5305 14.552 36.1625 15.272C34.8185 15.992 33.1145 16.352 31.0505 16.352H26.8385V26H21.7985V0.872H31.0505C32.9945 0.872 34.6505 1.208 36.0185 1.88C37.3865 2.552 38.4065 3.476 39.0785 4.652C39.7745 5.828 40.1225 7.16 40.1225 8.648ZM30.8345 12.284C32.2265 12.284 33.2585 11.972 33.9305 11.348C34.6025 10.7 34.9385 9.8 34.9385 8.648C34.9385 6.2 33.5705 4.976 30.8345 4.976H26.8385V12.284H30.8345Z" fill="#FF5733"/>
</svg>
