<svg width="38" height="35" viewBox="0 0 38 35" fill="none" xmlns="http://www.w3.org/2000/svg">
<path d="M15.9825 5.97602L19.0545 6.86402C16.0305 15.504 10.4385 20.544 1.84646 23.232C1.51046 22.512 0.598461 21.12 0.0224609 20.424C8.32646 18.24 13.4865 13.8 15.9825 5.97602ZM6.71846 6.16802C9.14246 13.272 14.3265 18.384 22.8705 20.304C22.1745 20.976 21.2385 22.344 20.7825 23.184C11.7825 20.832 6.83846 15.336 3.83846 7.03202L6.71846 6.16802ZM0.454461 4.41602H22.4385V7.24802H0.454461V4.41602ZM9.88646 0.624023H12.8625V6.14402H9.88646V0.624023Z" fill="#FF5733"/>
<path d="M30.9585 30.0143H22.0625L20.5905 34.2703H15.8865L23.9185 11.9023H29.1345L37.1665 34.2703H32.4305L30.9585 30.0143ZM29.7425 26.4303L26.5105 17.0863L23.2785 26.4303H29.7425Z" fill="#FF5733"/>
</svg>
